<svg width="20" height="23" viewBox="0 0 20 23" fill="none" xmlns="http://www.w3.org/2000/svg">
<path d="M13.75 10V5.5C13.75 4.50544 13.3549 3.55161 12.6516 2.84835C11.9484 2.14509 10.9945 1.75 9.99998 1.75C9.00542 1.75 8.0516 2.14509 7.34833 2.84835C6.64507 3.55161 6.24998 4.50544 6.24998 5.5V10M17.606 8.007L18.869 20.007C18.939 20.672 18.419 21.25 17.75 21.25H2.24998C2.09219 21.2502 1.93613 21.2171 1.79193 21.1531C1.64774 21.089 1.51863 20.9953 1.41301 20.8781C1.30738 20.7608 1.2276 20.6227 1.17884 20.4726C1.13008 20.3226 1.11343 20.1639 1.12999 20.007L2.39399 8.007C2.42314 7.73056 2.55361 7.4747 2.76024 7.28876C2.96686 7.10281 3.23501 6.99995 3.51298 7H16.487C17.063 7 17.546 7.435 17.606 8.007ZM6.62498 10C6.62498 10.0995 6.58548 10.1948 6.51515 10.2652C6.44482 10.3355 6.34944 10.375 6.24998 10.375C6.15053 10.375 6.05515 10.3355 5.98482 10.2652C5.91449 10.1948 5.87498 10.0995 5.87498 10C5.87498 9.90054 5.91449 9.80516 5.98482 9.73483C6.05515 9.66451 6.15053 9.625 6.24998 9.625C6.34944 9.625 6.44482 9.66451 6.51515 9.73483C6.58548 9.80516 6.62498 9.90054 6.62498 10ZM14.125 10C14.125 10.0995 14.0855 10.1948 14.0152 10.2652C13.9448 10.3355 13.8494 10.375 13.75 10.375C13.6505 10.375 13.5551 10.3355 13.4848 10.2652C13.4145 10.1948 13.375 10.0995 13.375 10C13.375 9.90054 13.4145 9.80516 13.4848 9.73483C13.5551 9.66451 13.6505 9.625 13.75 9.625C13.8494 9.625 13.9448 9.66451 14.0152 9.73483C14.0855 9.80516 14.125 9.90054 14.125 10Z" stroke="black" stroke-width="2" stroke-linecap="round" stroke-linejoin="round"/>
</svg>
